<?xml version="1.0"?><svg width="197" height="197" xmlns="http://www.w3.org/2000/svg">
 <title>Registered  Trademark Black</title>

 <g>
  <title>Layer 1</title>
  <path d="m79.991707,97.787468l40.09185,52.712532l30.91861,0l-40.091835,-52.712532l-30.918625,0z" id="P0" fill="#000000"/>
  <path d="m63.489391,137.997345l0,-84.60743" id="P1" stroke-linecap="square" stroke-width="25" stroke="#000000" fill="#0fad2c"/>
  <path d="m69.759933,55.389896l42.58754,0c11.68206,0 21.163132,9.740475 21.163132,21.742123c0,12.001686 -9.481071,21.742165 -21.163132,21.742165l-42.58754,0" id="P2" stroke-width="28.058256" stroke="#000000" fill="none"/>
  <path d="m85.494591,194.981522c-24.94072,-3.26413 -48.229221,-16.357529 -63.765701,-35.850708c-6.957549,-8.729416 -12.919479,-19.63974 -16.30724,-29.842117c-3.71608,-11.191147 -5.04029,-19.495293 -5.02527,-31.513588c0.01967,-15.722359 2.98409,-28.599007 9.82174,-42.662788c13.740321,-28.261299 39.969251,-47.9216 71.438809,-53.54807c4.855011,-0.86803 6.893402,-0.99028 16.416672,-0.98461c11.6157,0.00693 14.891556,0.36234 23.665581,2.56757c37.69693,9.4746 66.053421,40.219112 72.726212,78.850837c1.134583,6.568626 1.540939,18.29512 0.871872,25.158012c-2.703461,27.728828 -16.776291,52.694237 -39.059128,69.291328c-13.523453,10.072769 -28.98745,16.30629 -45.967186,18.529297c-6.095543,0.79805 -18.736855,0.800507 -24.81636,0.004852l0,-0.000015zm23.184441,-19.626953c10.745979,-1.579651 20.385925,-4.937424 29.050415,-10.118729c20.263535,-12.117493 33.8927,-32.324905 37.590836,-55.734543c0.744843,-4.71489 0.746033,-18.299568 0.002045,-23.02597c-4.918991,-31.248577 -27.759506,-56.489826 -58.060425,-64.163086c-20.358643,-5.155531 -42.543549,-1.77235 -60.204102,9.18107c-14.96664,9.282598 -26.604111,23.564589 -32.46677,39.844572c-3.2013,8.889656 -4.586451,16.93837 -4.586451,26.650429c-0.00001,21.043831 7.85784,40.163818 22.592112,54.971939c11.91571,11.975433 26.620068,19.515427 43.324306,22.2155c6.116364,0.988663 16.684135,1.071686 22.758041,0.178818l-0.000008,0z" id="path3167" fill="#000000"/>
 </g>
</svg>